# Blender v2.81 (sub 16) OBJ File: 'Assets.blend'
# www.blender.org
mtllib Bar_Disk.mtl
o Bar_Disk_Cube
v -0.420000 0.000000 2.100000
v -0.420000 0.000000 -2.100000
v 0.420000 0.000000 2.100000
v 0.420000 0.000000 -2.100000
v -0.420000 1.263218 2.100000
v -0.420000 1.263218 -2.100000
v 0.420000 1.263218 -2.100000
v 0.420000 1.263218 2.100000
v -0.420000 0.111389 -2.100000
v 0.420000 0.111389 -2.100000
v 0.420000 0.111389 2.100000
v -0.420000 0.111389 2.100000
v -0.420000 1.132564 2.100000
v -0.420000 1.132564 -2.100000
v 0.420000 1.132564 -2.100000
v 0.420000 1.132564 2.100000
v -0.420000 0.000000 1.962848
v 0.420000 1.263218 1.962848
v 0.420000 0.111389 1.962848
v 0.420000 1.132564 1.962848
v 0.420000 0.000000 1.962848
v -0.420000 1.263218 1.962848
v -0.420000 0.111389 1.962848
v -0.420000 1.132564 1.962848
v 0.420000 0.000000 -1.961458
v -0.420000 1.263218 -1.961458
v -0.420000 0.111389 -1.961458
v -0.420000 1.132564 -1.961458
v -0.420000 0.000000 -1.961458
v 0.420000 1.263218 -1.961458
v 0.420000 0.111389 -1.961458
v 0.420000 1.132564 -1.961458
v -0.420000 0.000000 -0.101630
v 0.420000 1.263218 -0.101630
v 0.420000 0.111389 -0.101630
v 0.420000 1.132564 -0.101630
v 0.420000 0.000000 -0.101630
v -0.420000 1.263218 -0.101630
v -0.420000 0.111389 -0.101630
v -0.420000 1.132564 -0.101630
v 0.420000 0.000000 0.101702
v -0.420000 1.263218 0.101702
v -0.420000 0.111389 0.101702
v -0.420000 1.132564 0.101702
v -0.420000 0.000000 0.101702
v 0.420000 1.263218 0.101702
v 0.420000 0.111389 0.101702
v 0.420000 1.132564 0.101702
v 0.374728 0.111389 0.101702
v 0.374728 0.111389 1.962848
v 0.374728 1.132564 0.101702
v 0.374728 1.132564 1.962848
v 0.374728 1.132564 -1.961458
v 0.374728 0.111389 -1.961458
v 0.374728 0.111389 -0.101630
v 0.374728 1.132564 -0.101630
v -0.139327 1.241390 2.339994
v -0.139327 1.241390 -2.339994
v -0.139327 1.342546 2.339994
v 0.139327 1.241390 2.339994
v 0.139327 1.241390 -2.339994
v 0.139327 1.342546 2.339994
v 0.139327 1.342546 -2.339994
v -0.139327 1.342546 -2.339994
v 0.156363 1.241390 2.339994
v 0.156363 1.241390 -2.339994
v 0.156363 1.342546 2.339994
v 0.435017 1.241390 2.339994
v 0.435017 1.241390 -2.339994
v 0.435017 1.342546 2.339994
v 0.435017 1.342546 -2.339994
v 0.156363 1.342546 -2.339994
v 0.456632 1.241390 2.339994
v 0.456632 1.241390 -2.339994
v 0.456632 1.342546 2.339994
v 0.735286 1.241390 2.339994
v 0.735286 1.241390 -2.339994
v 0.735286 1.342546 2.339994
v 0.735286 1.342546 -2.339994
v 0.456632 1.342546 -2.339994
v -0.433357 1.241390 2.339994
v -0.433357 1.241390 -2.339994
v -0.433357 1.342546 2.339994
v -0.154703 1.241390 2.339994
v -0.154703 1.241390 -2.339994
v -0.154703 1.342546 2.339994
v -0.154703 1.342546 -2.339994
v -0.433357 1.342546 -2.339994
v 0.353035 0.004086 -0.138220
v 0.353035 1.054980 -2.003196
v 0.353035 0.150137 -0.055923
v 0.409981 0.004086 -0.138220
v 0.409981 1.054980 -2.003196
v 0.409981 0.150137 -0.055923
v 0.409981 1.201031 -1.920898
v 0.353035 1.201031 -1.920898
v 0.345588 0.160962 -2.008154
v 0.345588 1.191109 -0.131638
v 0.345588 0.014008 -1.927480
v 0.402534 0.160962 -2.008154
v 0.402534 1.191109 -0.131638
v 0.402534 0.014008 -1.927480
v 0.402534 1.044154 -0.050965
v 0.345588 1.044154 -0.050965
v 0.353035 0.004086 1.913216
v 0.353035 1.054980 0.048241
v 0.353035 0.150137 1.995515
v 0.409981 0.004086 1.913216
v 0.409981 1.054980 0.048241
v 0.409981 0.150137 1.995515
v 0.409981 1.201031 0.130539
v 0.353035 1.201031 0.130539
v 0.342582 0.169929 0.058107
v 0.342582 1.200076 1.934622
v 0.342582 0.022975 0.138780
v 0.399529 0.169929 0.058107
v 0.399529 1.200076 1.934622
v 0.399529 0.022975 0.138780
v 0.399529 1.053121 2.015295
v 0.342582 1.053121 2.015295
v 0.222536 -0.000194 2.123429
v 0.222536 0.219833 2.123429
v 0.222536 -0.000194 1.903403
v 0.222536 0.219833 1.903403
v 0.442563 -0.000194 2.123429
v 0.442563 0.219833 2.123429
v 0.442563 -0.000194 1.903403
v 0.442563 0.219833 1.903403
v 0.222536 -0.000194 -1.898532
v 0.222536 0.219833 -1.898532
v 0.222536 -0.000194 -2.118558
v 0.222536 0.219833 -2.118558
v 0.442563 -0.000194 -1.898532
v 0.442563 0.219833 -1.898532
v 0.442563 -0.000194 -2.118558
v 0.442563 0.219833 -2.118558
vt 0.012884 0.552887
vt 0.004055 0.552887
vt 0.004055 0.282527
vt 0.012884 0.282527
vt 0.265587 0.274416
vt 0.265587 0.004055
vt 0.274416 0.004055
vt 0.274416 0.274416
vt 0.752109 0.282527
vt 0.777340 0.282527
vt 0.777340 0.552887
vt 0.752109 0.552887
vt 0.307362 0.012884
vt 0.282130 0.012884
vt 0.282130 0.004055
vt 0.307362 0.004055
vt 0.558626 0.274416
vt 0.533395 0.274416
vt 0.533395 0.004055
vt 0.558626 0.004055
vt 0.307362 0.291445
vt 0.282130 0.291445
vt 0.282130 0.282527
vt 0.307362 0.282527
vt 0.526076 0.291445
vt 0.504565 0.291445
vt 0.504565 0.282527
vt 0.526076 0.282527
vt 0.777340 0.274416
vt 0.755830 0.274416
vt 0.755829 0.004055
vt 0.777340 0.004055
vt 0.533395 0.282527
vt 0.554906 0.282527
vt 0.554906 0.552887
vt 0.533395 0.552887
vt 0.504565 0.012884
vt 0.504565 0.004055
vt 0.307362 0.424254
vt 0.307362 0.411165
vt 0.504565 0.411165
vt 0.504565 0.424254
vt 0.504565 0.145778
vt 0.504565 0.132689
vt 0.526076 0.132689
vt 0.526076 0.145778
vt 0.526076 0.411165
vt 0.526076 0.424254
vt 0.282130 0.424254
vt 0.282130 0.411165
vt 0.282130 0.145778
vt 0.282130 0.132689
vt 0.307362 0.132689
vt 0.307362 0.145778
vt 0.145782 0.004055
vt 0.145782 0.274416
vt 0.132694 0.274416
vt 0.132694 0.004055
vt 0.132689 0.552887
vt 0.132689 0.282527
vt 0.145778 0.282527
vt 0.145778 0.552887
vt 0.307362 0.552887
vt 0.282131 0.552887
vt 0.282131 0.544058
vt 0.307362 0.544058
vt 0.526076 0.552887
vt 0.504566 0.552887
vt 0.504566 0.544058
vt 0.526076 0.544058
vt 0.942365 0.943636
vt 0.942365 0.823831
vt 0.956937 0.823831
vt 0.956937 0.943636
vt 0.526076 0.012884
vt 0.274416 0.552887
vt 0.265498 0.552887
vt 0.265498 0.282527
vt 0.274416 0.282527
vt 0.004055 0.274416
vt 0.004055 0.004055
vt 0.012974 0.004055
vt 0.012974 0.274416
vt 0.307362 0.274416
vt 0.282131 0.274416
vt 0.282131 0.265498
vt 0.307362 0.265498
vt 0.504566 0.274416
vt 0.504566 0.265498
vt 0.526076 0.265498
vt 0.957374 0.943550
vt 0.957374 0.823830
vt 0.971945 0.823830
vt 0.971945 0.943550
vt 0.964126 0.002958
vt 0.964126 0.200162
vt 0.949555 0.200162
vt 0.949555 0.002958
vt 0.934546 0.200161
vt 0.934546 0.002958
vt 0.949117 0.002958
vt 0.949117 0.200161
vt 0.904530 0.200162
vt 0.904530 0.002958
vt 0.919101 0.002958
vt 0.919101 0.200162
vt 0.937571 0.820669
vt 0.937571 0.940473
vt 0.923000 0.940473
vt 0.923000 0.820669
vt 0.964563 0.121516
vt 0.964563 0.001796
vt 0.979134 0.001796
vt 0.979134 0.121516
vt 0.919538 0.200162
vt 0.919538 0.002958
vt 0.934109 0.002958
vt 0.934109 0.200162
vt 0.555610 0.561461
vt 0.645297 0.561461
vt 0.645297 0.862719
vt 0.555610 0.862719
vt 0.285653 0.868584
vt 0.305187 0.868584
vt 0.305187 0.958270
vt 0.285653 0.958270
vt 0.368165 0.862719
vt 0.278478 0.862719
vt 0.278478 0.561461
vt 0.368165 0.561461
vt 0.224704 0.958270
vt 0.205169 0.958270
vt 0.205169 0.868584
vt 0.224704 0.868584
vt 0.001345 0.561461
vt 0.091032 0.561461
vt 0.091032 0.862719
vt 0.001345 0.862719
vt 0.902954 0.820217
vt 0.922489 0.820217
vt 0.922489 0.909904
vt 0.902954 0.909904
vt 0.552920 0.862719
vt 0.463233 0.862719
vt 0.463233 0.561461
vt 0.552920 0.561461
vt 0.185048 0.868584
vt 0.204583 0.868584
vt 0.204583 0.958270
vt 0.185048 0.958270
vt 0.758174 0.791740
vt 0.776503 0.791740
vt 0.776502 0.994493
vt 0.758174 0.994493
vt 0.942431 0.560803
vt 0.961350 0.582381
vt 0.961350 0.818174
vt 0.942431 0.796596
vt 0.777052 0.994493
vt 0.777052 0.966280
vt 0.795381 0.966280
vt 0.795381 0.994493
vt 0.979902 0.442773
vt 0.960982 0.464351
vt 0.960982 0.228558
vt 0.979902 0.206980
vt 0.777052 0.763527
vt 0.795381 0.763527
vt 0.758174 0.763527
vt 0.776502 0.763527
vt 0.852017 0.990972
vt 0.833688 0.990972
vt 0.833688 0.791846
vt 0.852017 0.791846
vt 0.902013 0.228497
vt 0.921181 0.206934
vt 0.921181 0.439672
vt 0.902013 0.461234
vt 0.921756 0.206934
vt 0.940924 0.228497
vt 0.940924 0.461234
vt 0.921756 0.439672
vt 0.981396 0.588726
vt 0.999725 0.588726
vt 0.999725 0.787852
vt 0.981396 0.787852
vt 0.999725 0.560355
vt 0.981396 0.560355
vt 0.739295 0.791740
vt 0.757624 0.791740
vt 0.757624 0.994493
vt 0.739295 0.994493
vt 0.980838 0.818174
vt 0.961918 0.796596
vt 0.961918 0.560803
vt 0.980838 0.582381
vt 0.960415 0.442773
vt 0.941495 0.464351
vt 0.941495 0.228558
vt 0.960415 0.206980
vt 0.795931 0.763527
vt 0.814260 0.763527
vt 0.814260 0.966280
vt 0.795931 0.966280
vt 0.739295 0.763527
vt 0.757624 0.763527
vt 0.833138 0.990972
vt 0.814810 0.990972
vt 0.814810 0.791846
vt 0.833138 0.791846
vt 0.902948 0.582319
vt 0.922116 0.560757
vt 0.922116 0.793495
vt 0.902948 0.815057
vt 0.814810 0.763475
vt 0.833138 0.763475
vt 0.922691 0.560757
vt 0.941859 0.582319
vt 0.941859 0.815057
vt 0.922691 0.793495
vt 0.980461 0.234903
vt 0.998789 0.234903
vt 0.998789 0.434030
vt 0.980461 0.434030
vt 0.998789 0.206532
vt 0.980461 0.206532
vt 0.369579 0.910366
vt 0.369579 0.867876
vt 0.383742 0.867876
vt 0.383742 0.910366
vt 0.740817 0.757104
vt 0.740817 0.559901
vt 0.860622 0.559901
vt 0.860622 0.757104
vt 0.782795 0.200162
vt 0.782795 0.002958
vt 0.902515 0.002958
vt 0.902515 0.200162
vt 0.526076 0.004055
vt 0.526076 0.274416
vt 0.881311 0.508897
vt 0.861776 0.508897
vt 0.861776 0.207639
vt 0.881311 0.207639
vt 0.305773 0.868584
vt 0.325308 0.868584
vt 0.325308 0.958270
vt 0.305773 0.958270
vt 0.800828 0.508897
vt 0.781293 0.508897
vt 0.781293 0.207639
vt 0.800827 0.207639
vt 0.737675 0.862719
vt 0.647988 0.862719
vt 0.647988 0.561461
vt 0.737675 0.561461
vt 0.882247 0.862719
vt 0.862712 0.862719
vt 0.862712 0.561461
vt 0.882247 0.561461
vt 0.245411 0.868584
vt 0.264946 0.868584
vt 0.264946 0.958270
vt 0.245411 0.958270
vt 0.861190 0.508897
vt 0.841655 0.508897
vt 0.841655 0.207639
vt 0.861190 0.207639
vt 0.186100 0.561461
vt 0.275787 0.561461
vt 0.275787 0.862719
vt 0.186100 0.862719
vt 0.901432 0.508897
vt 0.881897 0.508897
vt 0.881897 0.207639
vt 0.901432 0.207639
vt 0.265532 0.868584
vt 0.285066 0.868584
vt 0.285066 0.958270
vt 0.265532 0.958270
vt 0.841069 0.508897
vt 0.821535 0.508897
vt 0.821534 0.207639
vt 0.841069 0.207639
vt 0.183410 0.862719
vt 0.093723 0.862719
vt 0.093723 0.561461
vt 0.183410 0.561461
vt 0.902368 0.862719
vt 0.882833 0.862719
vt 0.882833 0.561461
vt 0.902368 0.561461
vt 0.225290 0.868584
vt 0.244825 0.868584
vt 0.244825 0.958270
vt 0.225290 0.958270
vt 0.820948 0.508897
vt 0.801414 0.508897
vt 0.801414 0.207639
vt 0.820948 0.207639
vt 0.370855 0.561461
vt 0.460542 0.561461
vt 0.460542 0.862719
vt 0.370855 0.862719
vt 0.833688 0.763475
vt 0.852017 0.763475
vt 0.795931 0.994493
vt 0.814260 0.994493
vt 0.000637 0.868300
vt 0.043128 0.868300
vt 0.043128 0.939118
vt 0.000637 0.939118
vt 0.398755 0.910366
vt 0.398755 0.867876
vt 0.412919 0.867876
vt 0.412919 0.910366
vt 0.174422 0.939118
vt 0.131932 0.939118
vt 0.131932 0.868300
vt 0.174422 0.868300
vt 0.339977 0.868300
vt 0.339977 0.939118
vt 0.325814 0.939118
vt 0.325814 0.868300
vt 0.901938 0.536928
vt 0.901938 0.466111
vt 0.916101 0.466111
vt 0.916101 0.536928
vt 0.354990 0.910366
vt 0.354990 0.867876
vt 0.369154 0.867876
vt 0.369154 0.910366
vt 0.130658 0.939118
vt 0.088167 0.939118
vt 0.088167 0.868300
vt 0.130658 0.868300
vt 0.384167 0.910366
vt 0.384167 0.867876
vt 0.398330 0.867876
vt 0.398330 0.910366
vt 0.044402 0.868300
vt 0.086893 0.868300
vt 0.086893 0.939118
vt 0.044402 0.939118
vt 0.354565 0.868300
vt 0.354565 0.939118
vt 0.340402 0.939118
vt 0.340402 0.868300
vt 0.916526 0.536928
vt 0.916526 0.466111
vt 0.930689 0.466111
vt 0.930689 0.536928
vn 0.0000 1.0000 0.0000
vn 0.0000 -1.0000 0.0000
vn 0.0000 0.0000 1.0000
vn 1.0000 0.0000 0.0000
vn 0.0000 0.0000 -1.0000
vn -1.0000 0.0000 0.0000
vn 0.0000 -0.8712 -0.4909
vn 0.0000 -0.4909 0.8712
vn 0.0000 0.8712 0.4909
vn 0.0000 0.4909 -0.8712
vn 0.0000 0.8766 -0.4812
vn 0.0000 -0.8766 0.4812
vn 0.0000 0.4812 0.8766
vn 0.0000 -0.4812 -0.8766
g Bar_Disk_Cube_Wood
usemtl Wood
s off
f 22/1/1 5/2/1 8/3/1 18/4/1
f 17/5/2 21/6/2 3/7/2 1/8/2
f 16/9/3 8/10/3 5/11/3 13/12/3
f 20/13/4 18/14/4 8/15/4 16/16/4
f 14/17/5 6/18/5 7/19/5 15/20/5
f 28/21/6 26/22/6 6/23/6 14/24/6
f 29/25/6 27/26/6 9/27/6 2/28/6
f 2/29/5 9/30/5 10/31/5 4/32/5
f 3/33/3 11/34/3 12/35/3 1/36/3
f 27/26/6 28/21/6 14/24/6 9/27/6
f 9/30/5 14/17/5 15/20/5 10/31/5
f 19/37/4 20/13/4 16/16/4 11/38/4
f 11/34/3 16/9/3 13/12/3 12/35/3
f 44/39/6 40/40/6 39/41/6 43/42/6
f 35/43/4 47/44/4 41/45/4 37/46/4
f 43/42/6 39/41/6 33/47/6 45/48/6
f 42/49/6 38/50/6 40/40/6 44/39/6
f 34/51/4 46/52/4 48/53/4 36/54/4
f 41/55/2 45/56/2 33/57/2 37/58/2
f 42/59/1 46/60/1 34/61/1 38/62/1
f 13/63/6 5/64/6 22/65/6 24/66/6
f 1/67/6 12/68/6 23/69/6 17/70/6
f 12/68/6 13/63/6 24/66/6 23/69/6
f 19/71/1 47/72/1 49/73/1 50/74/1
f 41/45/4 47/44/4 19/37/4 21/75/4
f 48/53/4 46/52/4 18/14/4 20/13/4
f 45/56/2 41/55/2 21/6/2 17/5/2
f 42/59/1 22/1/1 18/4/1 46/60/1
f 6/76/1 26/77/1 30/78/1 7/79/1
f 2/80/2 4/81/2 25/82/2 29/83/2
f 15/84/4 7/85/4 30/86/4 32/87/4
f 10/88/4 15/84/4 32/87/4 31/89/4
f 39/41/6 40/40/6 28/21/6 27/26/6
f 33/47/6 39/41/6 27/26/6 29/25/6
f 40/40/6 38/50/6 26/22/6 28/21/6
f 26/77/1 38/62/1 34/61/1 30/78/1
f 29/83/2 25/82/2 37/58/2 33/57/2
f 32/87/4 30/86/4 34/51/4 36/54/4
f 25/90/4 31/89/4 35/43/4 37/46/4
f 32/91/2 36/92/2 56/93/2 53/94/2
f 24/66/6 22/65/6 42/49/6 44/39/6
f 17/70/6 23/69/6 43/42/6 45/48/6
f 23/69/6 24/66/6 44/39/6 43/42/6
f 36/54/4 48/53/4 47/44/4 35/43/4
f 20/95/5 19/96/5 50/97/5 52/98/5
f 47/99/3 48/100/3 51/101/3 49/102/3
f 36/103/5 35/104/5 55/105/5 56/106/5
f 48/107/2 20/108/2 52/109/2 51/110/2
f 35/111/1 31/112/1 54/113/1 55/114/1
f 31/115/3 32/116/3 53/117/3 54/118/3
f 58/119/2 61/120/2 60/121/2 57/122/2
f 58/123/5 64/124/5 63/125/5 61/126/5
f 66/127/2 69/128/2 68/129/2 65/130/2
f 66/131/5 72/132/5 71/133/5 69/134/5
f 74/135/2 77/136/2 76/137/2 73/138/2
f 74/139/5 80/140/5 79/141/5 77/142/5
f 82/143/2 85/144/2 84/145/2 81/146/2
f 82/147/5 88/148/5 87/149/5 85/150/5
f 90/151/7 93/152/7 92/153/7 89/154/7
f 89/155/6 91/156/6 96/157/6 90/158/6
f 92/159/8 94/160/8 91/161/8 89/162/8
f 93/163/4 95/164/4 94/165/4 92/166/4
f 95/167/9 96/168/9 91/161/9 94/160/9
f 90/151/10 96/169/10 95/170/10 93/152/10
f 98/171/11 101/172/11 100/173/11 97/174/11
f 97/175/6 99/176/6 104/177/6 98/178/6
f 101/179/4 103/180/4 102/181/4 100/182/4
f 103/183/12 104/184/12 99/185/12 102/186/12
f 98/187/13 104/184/13 103/183/13 101/188/13
f 106/189/7 109/190/7 108/191/7 105/192/7
f 105/193/6 107/194/6 112/195/6 106/196/6
f 109/197/4 111/198/4 110/199/4 108/200/4
f 111/201/9 112/202/9 107/203/9 110/204/9
f 106/189/10 112/205/10 111/206/10 109/190/10
f 114/207/11 117/208/11 116/209/11 113/210/11
f 113/211/6 115/212/6 120/213/6 114/214/6
f 116/209/14 118/215/14 115/216/14 113/210/14
f 117/217/4 119/218/4 118/219/4 116/220/4
f 119/221/12 120/222/12 115/223/12 118/224/12
f 114/225/13 120/222/13 119/221/13 117/226/13
f 121/227/6 122/228/6 124/229/6 123/230/6
g Bar_Disk_Cube_Light_Wood
usemtl Light_Wood
f 49/231/4 51/232/4 52/233/4 50/234/4
f 54/235/4 53/236/4 56/237/4 55/238/4
g Bar_Disk_Cube_Material.004
usemtl Material.004
f 21/75/4 19/37/4 11/38/4 3/239/4
f 4/240/4 10/88/4 31/89/4 25/90/4
f 57/241/6 59/242/6 64/243/6 58/244/6
f 60/245/3 62/246/3 59/247/3 57/248/3
f 61/249/4 63/250/4 62/251/4 60/252/4
f 63/253/1 64/254/1 59/255/1 62/256/1
f 65/257/6 67/258/6 72/259/6 66/260/6
f 68/261/3 70/262/3 67/263/3 65/264/3
f 69/265/4 71/266/4 70/267/4 68/268/4
f 71/269/1 72/270/1 67/271/1 70/272/1
f 73/273/6 75/274/6 80/275/6 74/276/6
f 76/277/3 78/278/3 75/279/3 73/280/3
f 77/281/4 79/282/4 78/283/4 76/284/4
f 79/285/1 80/286/1 75/287/1 78/288/1
f 81/289/6 83/290/6 88/291/6 82/292/6
f 84/293/3 86/294/3 83/295/3 81/296/3
f 85/297/4 87/298/4 86/299/4 84/300/4
f 87/301/1 88/302/1 83/303/1 86/304/1
f 100/173/14 102/305/14 99/306/14 97/174/14
f 108/307/8 110/204/8 107/203/8 105/308/8
f 123/309/5 124/310/5 128/311/5 127/312/5
f 127/313/4 128/314/4 126/315/4 125/316/4
f 125/317/3 126/318/3 122/319/3 121/320/3
f 123/321/2 127/322/2 125/323/2 121/324/2
f 128/325/1 124/326/1 122/327/1 126/328/1
f 129/329/6 130/330/6 132/331/6 131/332/6
f 131/333/5 132/334/5 136/335/5 135/336/5
f 135/337/4 136/338/4 134/339/4 133/340/4
f 133/341/3 134/342/3 130/343/3 129/344/3
f 131/345/2 135/346/2 133/347/2 129/348/2
f 136/349/1 132/350/1 130/351/1 134/352/1
