# Blender v2.81 (sub 16) OBJ File: 'Assets.blend'
# www.blender.org
mtllib Wall.mtl
o Wall_Plane
v 0.000000 3.000000 3.000000
v -0.000000 0.000000 3.000000
v 0.000000 3.000000 -3.000000
v -0.000000 0.000000 -3.000000
v 0.000000 3.000000 3.000000
v 0.000000 3.000000 -3.000000
v 0.000000 2.758621 -3.000000
v 0.000000 2.758621 3.000000
v -0.000000 0.251228 3.000000
v -0.000000 0.251228 -3.000000
v -0.000000 0.251228 3.000000
v -0.000000 0.000000 3.000000
v -0.000000 0.000000 -3.000000
v 0.000000 2.758621 -3.000000
v 0.000000 2.758621 3.000000
v -0.000000 0.251228 -3.000000
v 0.051011 0.251228 3.000000
v 0.051011 0.000000 3.000000
v 0.051011 3.000000 -3.000000
v 0.051011 3.000000 3.000000
v 0.051011 0.000000 -3.000000
v 0.051011 2.758621 -3.000000
v 0.051011 2.758621 3.000000
v 0.051011 0.251228 -3.000000
v 0.000000 0.000000 -2.850000
v -0.000000 3.000000 -2.850000
v 0.000000 0.000000 -3.150000
v -0.000000 3.000000 -3.150000
v 0.200000 0.000000 -2.850000
v 0.200000 3.000000 -2.850000
v 0.200000 0.000000 -3.150000
v 0.200000 3.000000 -3.150000
v 0.000000 0.000000 0.150000
v -0.000000 3.000000 0.150000
v 0.000000 0.000000 -0.150000
v -0.000000 3.000000 -0.150000
v 0.200000 0.000000 0.150000
v 0.200000 3.000000 0.150000
v 0.200000 0.000000 -0.150000
v 0.200000 3.000000 -0.150000
v 0.000000 0.000000 3.150000
v -0.000000 3.000000 3.150000
v 0.000000 0.000000 2.850000
v -0.000000 3.000000 2.850000
v 0.200000 0.000000 3.150000
v 0.200000 3.000000 3.150000
v 0.200000 0.000000 2.850000
v 0.200000 3.000000 2.850000
v -0.114592 0.069830 -2.719759
v -0.114592 2.721481 -0.068109
v -0.114592 0.281962 -2.931891
v -0.114592 2.933613 -0.280241
v 0.035408 0.069830 -2.719759
v 0.035408 2.721481 -0.068109
v 0.035408 0.281962 -2.931891
v 0.035408 2.933613 -0.280241
v -0.114592 0.069830 0.280241
v -0.114592 2.721481 2.931891
v -0.114592 0.281962 0.068109
v -0.114592 2.933613 2.719759
v 0.035408 0.069830 0.280241
v 0.035408 2.721481 2.931891
v 0.035408 0.281962 0.068109
v 0.035408 2.933613 2.719759
v 0.023599 2.933613 0.280241
v 0.023599 0.281962 2.931891
v 0.023599 2.721481 0.068109
v 0.023599 0.069830 2.719759
v -0.126401 2.933613 0.280241
v -0.126401 0.281962 2.931891
v -0.126401 2.721481 0.068109
v -0.126401 0.069830 2.719759
v 0.027084 2.933613 -2.719759
v 0.027084 0.281962 -0.068109
v 0.027084 2.721481 -2.931891
v 0.027084 0.069830 -0.280241
v -0.122916 2.933613 -2.719759
v -0.122916 0.281962 -0.068109
v -0.122916 2.721481 -2.931891
v -0.122916 0.069830 -0.280241
v 0.051011 0.251228 3.000000
v 0.051011 0.000000 3.000000
v 0.051011 3.000000 -3.000000
v 0.051011 3.000000 3.000000
v 0.051011 0.000000 -3.000000
v 0.051011 2.758621 -3.000000
v 0.051011 2.758621 3.000000
v 0.051011 0.251228 -3.000000
v 0.035408 2.933613 -0.280241
v 0.035408 0.281962 -2.931891
v 0.035408 0.069830 -2.719759
v 0.035408 2.721481 -0.068109
v 0.035408 2.933613 2.719759
v 0.035408 0.281962 0.068109
v 0.035408 0.069830 0.280241
v 0.035408 2.721481 2.931891
v 0.023599 2.721481 0.068109
v 0.023599 2.933613 0.280241
v 0.023599 0.281962 2.931891
v 0.023599 0.069830 2.719759
v 0.027084 2.721481 -2.931891
v 0.027084 2.933613 -2.719759
v 0.027084 0.281962 -0.068109
v 0.027084 0.069830 -0.280241
v 0.076865 0.251228 3.000000
v 0.076865 0.000000 3.000000
v 0.076865 3.000000 -3.000000
v 0.076865 3.000000 3.000000
v 0.076865 0.000000 -3.000000
v 0.076865 2.758621 -3.000000
v 0.076865 2.758621 3.000000
v 0.076865 0.251228 -3.000000
v 0.061263 2.933613 -0.280241
v 0.061263 0.281962 -2.931891
v 0.061263 0.069830 -2.719759
v 0.061263 2.721481 -0.068109
v 0.061263 2.933613 2.719759
v 0.061263 0.281962 0.068109
v 0.061263 0.069830 0.280241
v 0.061263 2.721481 2.931891
v 0.049454 2.721481 0.068109
v 0.049454 2.933613 0.280241
v 0.049454 0.281962 2.931891
v 0.049454 0.069830 2.719759
v 0.052939 2.721481 -2.931891
v 0.052939 2.933613 -2.719759
v 0.052939 0.281962 -0.068109
v 0.052939 0.069830 -0.280241
v 0.240630 3.000000 -3.150000
v 0.240630 0.000000 -3.150000
v 0.240630 0.000000 -2.850000
v 0.240630 3.000000 -2.850000
v 0.240630 3.000000 -0.150000
v 0.240630 0.000000 -0.150000
v 0.240630 0.000000 0.150000
v 0.240630 3.000000 0.150000
v 0.240630 3.000000 2.850000
v 0.240630 0.000000 2.850000
v 0.240630 0.000000 3.150000
v 0.240630 3.000000 3.150000
v 0.108967 0.251228 3.000000
v 0.108967 0.000000 3.000000
v 0.108967 3.000000 -3.000000
v 0.108967 3.000000 3.000000
v 0.108967 0.000000 -3.000000
v 0.108967 2.758621 -3.000000
v 0.108967 2.758621 3.000000
v 0.108967 0.251228 -3.000000
v -0.082280 0.000000 -3.150000
v -0.082280 0.000000 -2.850000
v -0.082280 3.000000 -2.850000
v -0.082280 3.000000 -3.150000
v -0.082280 0.000000 -0.150000
v -0.082280 0.000000 0.150000
v -0.082280 3.000000 0.150000
v -0.082280 3.000000 -0.150000
v -0.082280 0.000000 2.850000
v -0.082280 0.000000 3.150000
v -0.082280 3.000000 3.150000
v -0.082280 3.000000 2.850000
vt 0.000000 0.000000
vt 0.000000 0.000000
vt 0.000000 0.000000
vt 0.000000 0.000000
vt 0.322620 0.772005
vt 0.004768 0.772005
vt 0.004768 0.011409
vt 0.322620 0.011409
vt 0.000000 0.000000
vt 0.000000 0.000000
vt 0.000000 0.000000
vt 0.000000 0.000000
vt 0.000000 0.000000
vt 0.000000 0.000000
vt 0.000000 0.000000
vt 0.000000 0.000000
vt 0.000000 0.000000
vt 0.000000 0.000000
vt 0.000000 0.000000
vt 0.000000 0.000000
vt 0.979922 0.400112
vt 0.979922 0.422631
vt 0.973455 0.422631
vt 0.973455 0.400112
vt 0.697267 0.585011
vt 0.697267 0.554412
vt 0.703733 0.554412
vt 0.703733 0.585011
vt 0.690607 0.586278
vt 0.690607 0.554431
vt 0.697073 0.554431
vt 0.697073 0.586278
vt 0.986582 0.400099
vt 0.986582 0.421735
vt 0.980116 0.421735
vt 0.980116 0.400099
vt 0.663215 0.605076
vt 0.690106 0.605076
vt 0.690106 0.615506
vt 0.663215 0.615506
vt 0.576517 0.789873
vt 0.551163 0.789873
vt 0.551163 0.762982
vt 0.576517 0.762982
vt 0.690106 0.579722
vt 0.663215 0.579722
vt 0.623958 0.520962
vt 0.623958 0.494071
vt 0.629109 0.494071
vt 0.629109 0.520962
vt 0.546013 0.789873
vt 0.546013 0.762982
vt 0.598605 0.494071
vt 0.598605 0.520962
vt 0.690106 0.495398
vt 0.690106 0.520751
vt 0.663215 0.520751
vt 0.663215 0.495398
vt 0.630008 0.831218
vt 0.649023 0.831218
vt 0.649023 0.858109
vt 0.630008 0.858109
vt 0.663097 0.655861
vt 0.682112 0.655861
vt 0.682112 0.693891
vt 0.663097 0.693891
vt 0.682112 0.654720
vt 0.663097 0.654720
vt 0.663097 0.616690
vt 0.682112 0.616690
vt 0.431163 0.831218
vt 0.450178 0.831218
vt 0.450178 0.858109
vt 0.431163 0.858109
vt 0.690620 0.521959
vt 0.690620 0.490111
vt 0.693897 0.490111
vt 0.693897 0.521959
vt 0.662763 0.831218
vt 0.662763 0.858109
vt 0.659485 0.858109
vt 0.659485 0.831218
vt 0.000000 0.000000
vt 0.000000 0.000000
vt 0.000000 0.000000
vt 0.000000 0.000000
vt 0.000000 0.000000
vt 0.000000 0.000000
vt 0.000000 0.000000
vt 0.000000 0.000000
vt 0.000000 0.000000
vt 0.000000 0.000000
vt 0.000000 0.000000
vt 0.000000 0.000000
vt 0.000000 0.000000
vt 0.000000 0.000000
vt 0.000000 0.000000
vt 0.000000 0.000000
vt 0.000000 0.000000
vt 0.000000 0.000000
vt 0.000000 0.000000
vt 0.000000 0.000000
vt 0.000000 0.000000
vt 0.000000 0.000000
vt 0.000000 0.000000
vt 0.000000 0.000000
vt 0.000000 0.000000
vt 0.000000 0.000000
vt 0.000000 0.000000
vt 0.000000 0.000000
vt 0.000000 0.000000
vt 0.000000 0.000000
vt 0.000000 0.000000
vt 0.000000 0.000000
vt 0.693897 0.553494
vt 0.693897 0.522895
vt 0.697967 0.522895
vt 0.697967 0.553494
vt 0.704779 0.490204
vt 0.704779 0.528234
vt 0.701502 0.528234
vt 0.701502 0.490204
vt 0.950546 0.400112
vt 0.950546 0.422631
vt 0.947269 0.422631
vt 0.947269 0.400112
vt 0.652635 0.495079
vt 0.652635 0.521970
vt 0.649357 0.521970
vt 0.649357 0.495079
vt 0.690620 0.553494
vt 0.690620 0.522895
vt 0.666237 0.733061
vt 0.666237 0.695032
vt 0.669514 0.695032
vt 0.669514 0.733061
vt 0.950767 0.959558
vt 0.950767 0.937921
vt 0.954044 0.937921
vt 0.954044 0.959558
vt 0.663215 0.574572
vt 0.690106 0.574572
vt 0.663215 0.490248
vt 0.690106 0.490248
vt 0.697967 0.490111
vt 0.697967 0.521959
vt 0.958113 0.937921
vt 0.958113 0.959558
vt 0.943199 0.422631
vt 0.943199 0.400112
vt 0.430307 0.495338
vt 0.430307 0.875636
vt 0.392278 0.875636
vt 0.392278 0.495338
vt 0.690106 0.531182
vt 0.663215 0.531182
vt 0.586947 0.762982
vt 0.586947 0.789873
vt 0.588175 0.520962
vt 0.588175 0.494071
vt 0.979922 0.960454
vt 0.973455 0.960454
vt 0.999903 0.399774
vt 0.999903 0.937597
vt 0.993437 0.937597
vt 0.993437 0.399774
vt 0.000000 0.000000
vt 0.000000 0.000000
vt 0.986582 0.959558
vt 0.980116 0.959558
vt 0.993243 0.399774
vt 0.993243 0.937597
vt 0.986776 0.937597
vt 0.986776 0.399774
vt 0.501167 0.789873
vt 0.501167 0.762982
vt 0.511597 0.762982
vt 0.511597 0.789873
vt 0.475813 0.789873
vt 0.475813 0.762982
vt 0.663215 0.568193
vt 0.663215 0.542840
vt 0.690106 0.542840
vt 0.690106 0.568193
vt 0.666473 0.482503
vt 0.666473 0.007131
vt 0.704502 0.007131
vt 0.704502 0.482503
vt 0.630008 0.495079
vt 0.649023 0.495079
vt 0.000000 0.000000
vt 0.000000 0.000000
vt 0.000000 0.000000
vt 0.000000 0.000000
vt 0.904204 0.874210
vt 0.904204 0.398838
vt 0.923218 0.398838
vt 0.923218 0.874210
vt 0.682682 0.616690
vt 0.701697 0.616690
vt 0.701697 0.654720
vt 0.682682 0.654720
vt 0.548961 0.482503
vt 0.548961 0.007131
vt 0.586990 0.007131
vt 0.586990 0.482503
vt 0.469763 0.521970
vt 0.469763 0.858109
vt 0.450749 0.858109
vt 0.450749 0.521970
vt 0.000000 0.000000
vt 0.000000 0.000000
vt 0.865033 0.874210
vt 0.865033 0.398838
vt 0.884048 0.398838
vt 0.884048 0.874210
vt 0.450749 0.495079
vt 0.469763 0.495079
vt 0.000000 0.000000
vt 0.000000 0.000000
vt 0.512496 0.831218
vt 0.512496 0.495079
vt 0.531511 0.495079
vt 0.531511 0.831218
vt 0.509790 0.482503
vt 0.509790 0.007131
vt 0.547820 0.007131
vt 0.547820 0.482503
vt 0.942804 0.398838
vt 0.942804 0.874210
vt 0.923789 0.874210
vt 0.923789 0.398838
vt 0.531511 0.858109
vt 0.512496 0.858109
vt 0.431163 0.495079
vt 0.450178 0.495079
vt 0.430307 0.007131
vt 0.430307 0.482503
vt 0.392278 0.482503
vt 0.392278 0.007131
vt 0.884618 0.874210
vt 0.884618 0.398838
vt 0.903633 0.398838
vt 0.903633 0.874210
vt 0.682682 0.655861
vt 0.701697 0.655861
vt 0.701697 0.693891
vt 0.682682 0.693891
vt 0.545250 0.496764
vt 0.545250 0.972137
vt 0.541973 0.972137
vt 0.541973 0.496764
vt 0.656011 0.495079
vt 0.656011 0.521970
vt 0.652733 0.521970
vt 0.652733 0.495079
vt 0.950767 0.400099
vt 0.954044 0.400099
vt 0.656011 0.858109
vt 0.652733 0.858109
vt 0.000000 0.000000
vt 0.000000 0.000000
vt 0.000000 0.000000
vt 0.000000 0.000000
vt 0.000000 0.000000
vt 0.000000 0.000000
vt 0.962403 0.399774
vt 0.962403 0.937597
vt 0.958334 0.937597
vt 0.958334 0.399774
vt 0.508649 0.007131
vt 0.508649 0.482503
vt 0.470619 0.482503
vt 0.470619 0.007131
vt 0.469478 0.007131
vt 0.469478 0.482503
vt 0.431448 0.482503
vt 0.431448 0.007131
vt 0.665332 0.007131
vt 0.665332 0.482503
vt 0.627302 0.482503
vt 0.627302 0.007131
vt 0.626161 0.007131
vt 0.626161 0.482503
vt 0.588131 0.482503
vt 0.588131 0.007131
vt 0.973248 0.399774
vt 0.973248 0.937597
vt 0.969971 0.937597
vt 0.969971 0.399774
vt 0.701404 0.490204
vt 0.701404 0.528234
vt 0.698126 0.528234
vt 0.698126 0.490204
vt 0.538499 0.496764
vt 0.538499 0.972137
vt 0.535221 0.972137
vt 0.535221 0.496764
vt 0.652635 0.858109
vt 0.649358 0.858109
vt 0.662763 0.495079
vt 0.659485 0.495079
vt 0.965681 0.399774
vt 0.965681 0.937597
vt 0.659387 0.831218
vt 0.659387 0.858109
vt 0.656109 0.858109
vt 0.656109 0.831218
vt 0.950546 0.960454
vt 0.947269 0.960454
vt 0.541875 0.496764
vt 0.541875 0.972137
vt 0.538597 0.972137
vt 0.538597 0.496764
vt 0.666138 0.695032
vt 0.666138 0.733061
vt 0.662861 0.733061
vt 0.662861 0.695032
vt 0.535123 0.496764
vt 0.535123 0.972137
vt 0.531846 0.972137
vt 0.531845 0.496764
vt 0.659387 0.495079
vt 0.656109 0.495079
vt 0.470663 0.789873
vt 0.470663 0.762982
vt 0.690106 0.573344
vt 0.663215 0.573344
vt 0.391248 0.772005
vt 0.360649 0.772005
vt 0.360649 0.011409
vt 0.391248 0.011409
vt 0.359713 0.772005
vt 0.327866 0.772005
vt 0.327865 0.011409
vt 0.359713 0.011409
vt 0.943199 0.960454
vt 0.965901 0.937597
vt 0.965901 0.399774
vt 0.958113 0.400099
vt 0.663215 0.532410
vt 0.690106 0.532410
vt 0.778353 0.005704
vt 0.778353 0.386003
vt 0.753000 0.386003
vt 0.753000 0.005704
vt 0.475813 0.494071
vt 0.470663 0.494071
vt 0.551163 0.494071
vt 0.576517 0.494071
vt 0.736191 0.397411
vt 0.736191 0.777709
vt 0.710838 0.777709
vt 0.710837 0.397411
vt 0.501166 0.494071
vt 0.746621 0.397411
vt 0.746621 0.777709
vt 0.736191 0.005704
vt 0.736191 0.386003
vt 0.710838 0.386003
vt 0.710837 0.005704
vt 0.623958 0.789873
vt 0.598605 0.789873
vt 0.827998 0.005704
vt 0.827998 0.386002
vt 0.789968 0.386002
vt 0.789968 0.005704
vt 0.864177 0.397411
vt 0.864177 0.777709
vt 0.826147 0.777709
vt 0.826147 0.397411
vt 0.825006 0.397411
vt 0.825006 0.777709
vt 0.786976 0.777709
vt 0.786976 0.397411
vt 0.705687 0.777709
vt 0.705687 0.397411
vt 0.546013 0.494071
vt 0.629109 0.789873
vt 0.747849 0.386003
vt 0.747849 0.005704
vt 0.705687 0.386003
vt 0.705687 0.005704
vt 0.867168 0.005705
vt 0.867168 0.386002
vt 0.829138 0.386002
vt 0.829138 0.005704
vt 0.747806 0.777709
vt 0.747806 0.397411
vt 0.785835 0.397411
vt 0.785835 0.777709
vt 0.511597 0.494071
vt 0.788783 0.005704
vt 0.788783 0.386003
vt 0.746621 0.005704
vt 0.746621 0.386003
vt 0.586947 0.494071
vt 0.588175 0.789873
vn 0.0000 0.0000 1.0000
vn 1.0000 -0.0000 0.0000
vn 0.0000 0.0000 -1.0000
vn 0.0000 1.0000 0.0000
vn 0.0000 -1.0000 0.0000
vn 0.0000 -0.7071 -0.7071
vn 0.0000 0.7071 0.7071
vn 0.0000 -0.7071 0.7071
vn 0.0000 0.7071 -0.7071
vn -1.0000 0.0000 0.0000
g Wall_Plane_Plaster
usemtl Plaster
s off
f 4/1/1 10/2/1 16/3/1 13/4/1
f 8/5/2 9/6/2 10/7/2 7/8/2
f 7/9/1 3/10/1 6/11/1 14/12/1
f 9/13/1 2/14/1 12/15/1 11/16/1
f 1/17/1 8/18/1 15/19/1 5/20/1
f 11/21/1 12/22/1 18/23/1 17/24/1
f 14/25/3 6/26/3 19/27/3 22/28/3
f 13/29/3 16/30/3 24/31/3 21/32/3
f 5/33/1 15/34/1 23/35/1 20/36/1
f 26/37/4 28/38/4 152/39/4 151/40/4
f 27/41/5 31/42/5 29/43/5 25/44/5
f 32/45/4 28/38/4 26/37/4 30/46/4
f 45/47/5 47/48/5 138/49/5 139/50/5
f 29/43/5 31/42/5 130/51/5 131/52/5
f 43/53/5 47/48/5 45/47/5 41/54/5
f 48/55/4 44/56/4 42/57/4 46/58/4
f 51/59/6 55/60/6 53/61/6 49/62/6
f 64/63/7 60/64/7 58/65/7 62/66/7
f 72/67/8 68/68/8 66/69/8 70/70/8
f 75/71/9 79/72/9 77/73/9 73/74/9
f 85/75/3 88/76/3 112/77/3 109/78/3
f 101/79/9 102/80/9 126/81/9 125/82/9
f 22/83/1 19/84/1 83/85/1 86/86/1
f 66/87/1 68/88/1 100/89/1 99/90/1
f 20/91/1 23/92/1 87/93/1 84/94/1
f 64/95/1 62/96/1 96/97/1 93/98/1
f 21/99/1 24/100/1 88/101/1 85/102/1
f 75/103/1 73/104/1 102/105/1 101/106/1
f 53/107/1 55/108/1 90/109/1 91/110/1
f 17/111/1 18/112/1 82/113/1 81/114/1
f 110/115/3 107/116/3 143/117/3 146/118/3
f 93/119/7 96/120/7 120/121/7 117/122/7
f 81/123/1 82/124/1 106/125/1 105/126/1
f 91/127/6 90/128/6 114/129/6 115/130/6
f 86/131/3 83/132/3 107/116/3 110/115/3
f 99/133/8 100/134/8 124/135/8 123/136/8
f 84/137/1 87/138/1 111/139/1 108/140/1
f 32/45/4 30/46/4 132/141/4 129/142/4
f 48/55/4 46/58/4 140/143/4 137/144/4
f 109/78/3 112/77/3 148/145/3 145/146/3
f 108/140/1 111/139/1 147/147/1 144/148/1
f 105/126/1 106/125/1 142/149/1 141/150/1
f 154/151/10 155/152/10 156/153/10 153/154/10
f 42/57/4 44/56/4 160/155/4 159/156/4
f 27/41/5 25/44/5 150/157/5 149/158/5
f 43/53/5 41/54/5 158/159/5 157/160/5
g Wall_Plane_Wood
usemtl Wood
f 12/22/5 13/161/5 21/162/5 18/23/5
f 2/14/1 4/1/1 13/4/1 12/15/1
f 16/163/4 11/164/4 17/165/4 24/166/4
f 3/10/1 1/17/1 5/20/1 6/11/1
f 8/18/1 7/9/1 14/12/1 15/19/1
f 10/2/1 9/13/1 11/16/1 16/3/1
f 76/167/1 75/103/1 101/106/1 104/168/1
f 18/112/1 21/99/1 85/102/1 82/113/1
f 15/34/5 14/169/5 22/170/5 23/35/5
f 6/171/4 5/172/4 20/173/4 19/174/4
f 35/175/5 33/176/5 154/177/5 153/178/5
f 35/175/5 39/179/5 37/180/5 33/176/5
f 40/181/4 36/182/4 34/183/4 38/184/4
f 49/185/10 50/186/10 52/187/10 51/188/10
f 51/59/9 52/189/9 56/190/9 55/60/9
f 67/191/1 65/192/1 98/193/1 97/194/1
f 53/195/8 54/196/8 50/197/8 49/198/8
f 56/199/7 52/200/7 50/201/7 54/202/7
f 57/203/10 58/204/10 60/205/10 59/206/10
f 59/207/9 60/208/9 64/209/9 63/210/9
f 54/211/1 53/107/1 91/110/1 92/212/1
f 61/213/8 62/214/8 58/215/8 57/216/8
f 59/207/6 63/210/6 61/217/6 57/218/6
f 74/219/1 76/167/1 104/168/1 103/220/1
f 67/221/6 68/222/6 72/223/6 71/224/6
f 71/225/10 72/226/10 70/227/10 69/228/10
f 69/229/7 70/230/7 66/231/7 65/232/7
f 67/221/9 71/224/9 69/233/9 65/234/9
f 19/84/1 20/91/1 84/94/1 83/85/1
f 75/71/6 76/235/6 80/236/6 79/72/6
f 79/237/10 80/238/10 78/239/10 77/240/10
f 77/241/7 78/242/7 74/243/7 73/244/7
f 80/245/8 76/246/8 74/247/8 78/248/8
f 102/249/7 103/250/7 127/251/7 126/252/7
f 95/253/6 94/254/6 118/255/6 119/256/6
f 87/138/5 86/257/5 110/258/5 111/139/5
f 94/254/9 93/259/9 117/260/9 118/255/9
f 65/192/1 66/87/1 99/90/1 98/193/1
f 63/261/1 64/95/1 93/98/1 94/262/1
f 61/263/1 63/261/1 94/262/1 95/264/1
f 68/88/1 67/191/1 97/194/1 100/89/1
f 23/92/1 22/83/1 86/86/1 87/93/1
f 55/108/1 56/265/1 89/266/1 90/109/1
f 62/96/1 61/263/1 95/264/1 96/97/1
f 24/100/1 17/111/1 81/114/1 88/101/1
f 73/104/1 74/219/1 103/220/1 102/105/1
f 56/265/1 54/211/1 92/212/1 89/266/1
f 107/267/4 108/268/4 144/269/4 143/270/4
f 114/271/2 113/272/2 116/273/2 115/274/2
f 118/275/2 117/276/2 120/277/2 119/278/2
f 122/279/2 123/280/2 124/281/2 121/282/2
f 126/283/2 127/284/2 128/285/2 125/286/2
f 88/287/4 81/288/4 105/289/4 112/290/4
f 103/291/8 104/292/8 128/293/8 127/294/8
f 96/295/8 95/296/8 119/297/8 120/298/8
f 90/128/9 89/299/9 113/300/9 114/129/9
f 104/301/6 101/79/6 125/82/6 128/302/6
f 83/303/4 84/304/4 108/268/4 107/267/4
f 97/305/9 98/306/9 122/307/9 121/308/9
f 82/124/5 85/309/5 109/310/5 106/125/5
f 98/311/7 99/312/7 123/313/7 122/314/7
f 89/315/7 92/316/7 116/317/7 113/318/7
f 92/319/8 91/320/8 115/321/8 116/322/8
f 100/323/6 97/305/6 121/308/6 124/324/6
f 37/180/5 39/179/5 134/325/5 135/326/5
f 40/181/4 38/184/4 136/327/4 133/328/4
f 144/329/2 147/330/2 146/331/2 143/332/2
f 141/333/2 142/334/2 145/335/2 148/336/2
f 106/125/5 109/310/5 145/337/5 142/149/5
f 112/290/4 105/289/4 141/338/4 148/339/4
f 111/139/5 110/258/5 146/340/5 147/147/5
f 34/183/4 36/182/4 156/341/4 155/342/4
g Wall_Plane_Light_Wood
usemtl Light_Wood
f 27/343/3 28/344/3 32/345/3 31/346/3
f 38/347/1 37/180/1 135/326/1 136/348/1
f 29/43/1 30/349/1 26/350/1 25/44/1
f 35/351/3 36/352/3 40/353/3 39/354/3
f 37/180/1 38/347/1 34/355/1 33/176/1
f 36/352/3 35/351/3 153/356/3 156/357/3
f 43/358/3 44/359/3 48/360/3 47/361/3
f 45/47/1 46/362/1 42/363/1 41/54/1
f 130/364/2 129/365/2 132/366/2 131/367/2
f 134/368/2 133/369/2 136/370/2 135/371/2
f 138/372/2 137/373/2 140/374/2 139/375/2
f 39/354/3 40/353/3 133/376/3 134/377/3
f 30/349/1 29/43/1 131/52/1 132/378/1
f 46/362/1 45/47/1 139/50/1 140/379/1
f 31/346/3 32/345/3 129/380/3 130/381/3
f 47/361/3 48/360/3 137/382/3 138/383/3
f 150/384/10 151/385/10 152/386/10 149/387/10
f 158/388/10 159/389/10 160/390/10 157/391/10
f 33/176/1 34/355/1 155/392/1 154/177/1
f 28/344/3 27/343/3 149/393/3 152/394/3
f 44/359/3 43/358/3 157/395/3 160/396/3
f 25/44/1 26/350/1 151/397/1 150/157/1
f 41/54/1 42/363/1 159/398/1 158/159/1
